<svg width="19" height="19" viewBox="0 0 19 19" fill="none" xmlns="http://www.w3.org/2000/svg">
<path d="M9.62496 0.5C4.62278 0.5 0.625 4.55561 0.625 9.49996C0.625 14.493 4.68068 18.5002 9.62289 18.5C14.5848 18.4999 18.6249 14.4805 18.6249 9.49996C18.6249 4.56137 14.6305 0.5 9.62496 0.5ZM7.62015 10.4101L6.95714 13.2834C6.791 14.0036 5.78985 14.1167 5.47922 13.4289L3.98761 10.1195L4.98362 7.19608C5.06919 6.94503 4.95497 6.66955 4.71689 6.55265L2.71742 5.57088C3.4943 4.20401 4.64939 3.10672 6.04783 2.40311V3.71292C6.04783 3.962 6.22213 4.17715 6.46584 4.2288L9.16604 4.80117C9.53307 4.8788 9.82019 5.15267 9.91532 5.51576L10.1705 6.49C10.2487 6.78922 10.1805 7.11216 9.98802 7.35386L7.72147 10.2001C7.67246 10.2616 7.63784 10.3334 7.62015 10.4101ZM9.04074 17.4242L9.34333 16.7855C9.39961 16.6665 9.46212 16.6104 9.57283 16.5434C9.68965 16.4735 9.86691 16.3921 10.1584 16.2458C10.419 16.1153 10.6988 16.198 10.8513 16.3984C10.8514 16.3985 10.8514 16.3985 10.8515 16.3986L11.4822 17.2268C10.6862 17.4172 9.8603 17.4839 9.04074 17.4242ZM14.7456 15.5748L14.0546 15.1266L13.7447 12.2544C13.7141 11.9718 13.7875 11.6878 13.9511 11.4548L15.5074 9.23956C15.5698 9.15079 15.6033 9.0449 15.6033 8.93641V6.90175L16.6134 5.71639C17.2412 6.87299 17.5703 8.16762 17.5703 9.49996C17.5702 11.9251 16.4851 14.1052 14.7456 15.5748Z" fill="#0FB8D3"/>
</svg>
