<svg width="15" height="14" viewBox="0 0 15 14" fill="none" xmlns="http://www.w3.org/2000/svg">
<path d="M13.8693 5.40581L12.8173 1.89917C12.5775 1.09946 11.8556 0.5625 11.0211 0.5625H3.97882C3.14432 0.5625 2.42242 1.09946 2.18255 1.89917L1.13055 5.40581C0.466282 5.69449 -6.10352e-05 6.35555 -6.10352e-05 7.125V10.875C-6.10352e-05 11.3927 0.419708 11.8125 0.937439 11.8125H0.937496L0.937439 12.7499C0.937439 13.2677 1.35715 13.6875 1.87494 13.6875H2.81249C3.33023 13.6875 3.74999 13.2677 3.74999 12.75L3.74959 11.8125H11.2499L11.2499 12.7499C11.2499 13.2677 11.6696 13.6875 12.1874 13.6875H13.1249C13.6427 13.6875 14.0624 13.2677 14.0624 12.75V11.8126L14.0621 11.8125H14.0624C14.5802 11.8125 14.9999 11.3927 14.9999 10.875V7.125C14.9999 6.35555 14.5336 5.69448 13.8693 5.40581L13.8693 5.40581ZM3.97879 2.4375H11.021L11.8648 5.25H3.13502L3.97879 2.4375H3.97879ZM3.74991 9.46875C3.23212 9.46875 2.81241 9.04898 2.81241 8.53125C2.81241 8.01346 3.23212 7.59375 3.74991 7.59375C4.2677 7.59375 4.68741 8.01346 4.68741 8.53125C4.68741 9.04898 4.2677 9.46875 3.74991 9.46875ZM11.2499 9.46875C10.7321 9.46875 10.3124 9.04898 10.3124 8.53125C10.3124 8.01346 10.7321 7.59375 11.2499 7.59375C11.7677 7.59375 12.1874 8.01346 12.1874 8.53125C12.1874 9.04898 11.7677 9.46875 11.2499 9.46875Z" fill="#969696"/>
</svg>
