<svg width="32" height="32" viewBox="0 0 32 32" fill="none" xmlns="http://www.w3.org/2000/svg">
<rect width="32" height="32" rx="8" fill="#0FB8D3" fill-opacity="0.1"/>
<g clip-path="url(#clip0_219_5497)">
<path d="M16 14C16 13.8232 16.0703 13.6536 16.1953 13.5286C16.3203 13.4036 16.4899 13.3333 16.6667 13.3333C16.8435 13.3333 17.0131 13.4036 17.1381 13.5286C17.2631 13.6536 17.3334 13.8232 17.3334 14C17.3334 14.1768 17.2631 14.3464 17.1381 14.4714C17.0131 14.5964 16.8435 14.6667 16.6667 14.6667C16.4899 14.6667 16.3203 14.5964 16.1953 14.4714C16.0703 14.3464 16 14.1768 16 14ZM23.3334 11.3333V20.6667C23.3323 21.5504 22.9808 22.3976 22.3559 23.0225C21.731 23.6474 20.8838 23.9989 20 24H13.3334C12.6855 23.9991 12.052 23.8095 11.5102 23.4543C10.9684 23.0991 10.5418 22.5938 10.2827 22H9.33335C9.15654 22 8.98697 21.9298 8.86195 21.8047C8.73692 21.6797 8.66669 21.5101 8.66669 21.3333C8.66669 21.1565 8.73692 20.987 8.86195 20.8619C8.98697 20.7369 9.15654 20.6667 9.33335 20.6667H10V19.3333H9.33335C9.15654 19.3333 8.98697 19.2631 8.86195 19.1381C8.73692 19.013 8.66669 18.8435 8.66669 18.6667C8.66669 18.4899 8.73692 18.3203 8.86195 18.1953C8.98697 18.0702 9.15654 18 9.33335 18H10V16.6667H9.33335C9.15654 16.6667 8.98697 16.5964 8.86195 16.4714C8.73692 16.3464 8.66669 16.1768 8.66669 16C8.66669 15.8232 8.73692 15.6536 8.86195 15.5286C8.98697 15.4036 9.15654 15.3333 9.33335 15.3333H10V14H9.33335C9.15654 14 8.98697 13.9298 8.86195 13.8047C8.73692 13.6797 8.66669 13.5101 8.66669 13.3333C8.66669 13.1565 8.73692 12.987 8.86195 12.8619C8.98697 12.7369 9.15654 12.6667 9.33335 12.6667H10V11.3333H9.33335C9.15654 11.3333 8.98697 11.2631 8.86195 11.1381C8.73692 11.013 8.66669 10.8435 8.66669 10.6667C8.66669 10.4899 8.73692 10.3203 8.86195 10.1953C8.98697 10.0702 9.15654 10 9.33335 10H10.2827C10.5418 9.40624 10.9684 8.90086 11.5102 8.54567C12.052 8.19047 12.6855 8.00085 13.3334 8H20C20.8838 8.00106 21.731 8.35259 22.3559 8.97748C22.9808 9.60237 23.3323 10.4496 23.3334 11.3333ZM14.6667 14C14.6667 14.5304 14.8774 15.0391 15.2525 15.4142C15.6275 15.7893 16.1363 16 16.6667 16C17.1971 16 17.7058 15.7893 18.0809 15.4142C18.456 15.0391 18.6667 14.5304 18.6667 14C18.6667 13.4696 18.456 12.9609 18.0809 12.5858C17.7058 12.2107 17.1971 12 16.6667 12C16.1363 12 15.6275 12.2107 15.2525 12.5858C14.8774 12.9609 14.6667 13.4696 14.6667 14ZM20 20C19.8594 15.5947 13.4727 15.596 13.3334 20C13.3334 20.1768 13.4036 20.3464 13.5286 20.4714C13.6536 20.5964 13.8232 20.6667 14 20.6667C14.1768 20.6667 14.3464 20.5964 14.4714 20.4714C14.5964 20.3464 14.6667 20.1768 14.6667 20C14.6667 19.4696 14.8774 18.9609 15.2525 18.5858C15.6275 18.2107 16.1363 18 16.6667 18C17.1971 18 17.7058 18.2107 18.0809 18.5858C18.456 18.9609 18.6667 19.4696 18.6667 20C18.6667 20.1768 18.7369 20.3464 18.8619 20.4714C18.987 20.5964 19.1565 20.6667 19.3334 20.6667C19.5102 20.6667 19.6797 20.5964 19.8048 20.4714C19.9298 20.3464 20 20.1768 20 20Z" fill="#0FB8D3"/>
</g>
<defs>
<clipPath id="clip0_219_5497">
<rect width="16" height="16" fill="white" transform="translate(8 8)"/>
</clipPath>
</defs>
</svg>
