<svg width="18" height="17" viewBox="0 0 18 17" fill="none" xmlns="http://www.w3.org/2000/svg">
<path fill-rule="evenodd" clip-rule="evenodd" d="M13.9197 10.6305C13.3147 11.6111 12.4863 12.4396 11.5055 13.0447L14.9608 16.5C15.6274 17.1666 16.7083 17.1666 17.3749 16.5C17.3749 16.4999 17.375 16.4999 17.375 16.4999C18.0417 15.8333 18.0417 14.7524 17.375 14.0858L13.9197 10.6305ZM7.64494 0C3.90852 0 0.875011 3.03351 0.875011 6.76993C0.875011 10.5064 3.90852 13.5398 7.64494 13.5398C11.3814 13.5398 14.4148 10.5064 14.4148 6.76993C14.4148 3.03351 11.3814 0 7.64494 0ZM7.64494 2.32834C10.0963 2.32834 12.0865 4.31854 12.0865 6.76993C12.0865 9.22129 10.0963 11.2115 7.64494 11.2115C5.19355 11.2115 3.20335 9.22129 3.20335 6.76993C3.20335 4.31854 5.19355 2.32834 7.64494 2.32834Z" fill="#969696"/>
</svg>
