<svg width="15" height="12" viewBox="0 0 15 12" fill="none" xmlns="http://www.w3.org/2000/svg">
<path d="M0 10.2363V11.1778C0 11.4205 0.196758 11.6172 0.439453 11.6172C0.682148 11.6172 0.878906 11.4205 0.878906 11.1778V10.6758H14.1211V11.1778C14.1211 11.4205 14.3179 11.6172 14.5605 11.6172C14.8032 11.6172 15 11.4205 15 11.1778V10.2363V8.79297H0V10.2363Z" fill="#969696"/>
<path d="M13.3838 5.08984H1.61619C0.725039 5.08984 0 5.81488 0 6.70607V7.91406H15V6.70607C15 5.81488 14.275 5.08984 13.3838 5.08984Z" fill="#969696"/>
<path d="M5.85258 3.14453C5.446 3.14453 5.11523 3.47526 5.11523 3.88182V4.21091H9.88477V3.88182C9.88477 3.47526 9.55403 3.14453 9.14748 3.14453H5.85258Z" fill="#969696"/>
<path d="M4.23635 3.88183C4.23635 2.99064 4.96139 2.26563 5.8526 2.26563H9.14753C10.0387 2.26563 10.7637 2.99064 10.7637 3.88183V4.21092H13.1173V1.999C13.1173 1.10782 12.3922 0.382812 11.501 0.382812H3.49906C2.60788 0.382812 1.88287 1.10782 1.88287 1.999V4.21092H4.23635V3.88183Z" fill="#969696"/>
</svg>
