<svg width="20" height="20" viewBox="0 0 20 20" fill="none" xmlns="http://www.w3.org/2000/svg">
<g clip-path="url(#clip0_751_2503)">
<path d="M8.73168 9.69341L4.97335 3.80007L6.58251 3.36841L12.375 8.71841L16.76 7.54341C17.0803 7.45766 17.4215 7.50263 17.7085 7.66845C17.9956 7.83426 18.2051 8.10733 18.2908 8.42758C18.3766 8.74782 18.3316 9.08902 18.1658 9.37611C18 9.6632 17.7269 9.87266 17.4067 9.95841L4.93001 13.3001L4.28335 10.8851L4.48418 10.8309L6.54001 12.8684L4.35168 13.4551C4.17223 13.5032 3.98186 13.49 3.81079 13.4175C3.63972 13.345 3.49778 13.2175 3.40751 13.0551L1.22168 9.11674L2.42918 8.79341L4.48418 10.8309L8.73168 9.69257V9.69341ZM3.33335 15.8334H16.6667V17.5001H3.33335V15.8334Z" fill="#303030"/>
</g>
<defs>
<clipPath id="clip0_751_2503">
<rect width="20" height="20" fill="white"/>
</clipPath>
</defs>
</svg>
