<svg width="15" height="16" viewBox="0 0 15 16" fill="none" xmlns="http://www.w3.org/2000/svg">
<path d="M3.46498 1.36724C3.31179 1.32385 3.147 1.36665 3.03441 1.4793L1.68749 2.82621C1.58856 2.92515 1.54265 3.06527 1.56386 3.20361C1.58507 3.34192 1.67088 3.46183 1.79495 3.52655L5.98163 5.71094L8.81011 2.88246L3.46498 1.36724Z" fill="#0FB8D3"/>
<path d="M11.9735 13.7049C12.0382 13.8289 12.1581 13.9148 12.2964 13.936C12.3187 13.9394 12.341 13.9411 12.3631 13.9411C12.4787 13.9411 12.5908 13.8954 12.6738 13.8123L14.0207 12.4654C14.1334 12.3528 14.1762 12.1881 14.1328 12.0349L12.6175 6.6897L9.78906 9.51821L11.9735 13.7049Z" fill="#0FB8D3"/>
<path d="M13.66 0.510767C12.7397 0.634487 11.8713 1.06421 11.2146 1.72084L4.69894 8.23654L1.71264 7.40967C1.56018 7.36743 1.39661 7.41049 1.28464 7.52246L0.12871 8.67831C0.0310344 8.77595 -0.01502 8.91388 0.00434509 9.05064C0.0236809 9.18739 0.106239 9.3071 0.227146 9.37381L4.0288 11.4711L6.12609 15.2728C6.1928 15.3937 6.31251 15.4763 6.44927 15.4956C6.46983 15.4985 6.4904 15.4999 6.51091 15.4999C6.62657 15.4999 6.73863 15.4542 6.8216 15.3712L7.9775 14.2153C8.08944 14.1034 8.13254 13.9399 8.09029 13.7873L7.26336 10.801L13.7791 4.2853C14.4357 3.6287 14.8655 2.76023 14.9892 1.83996C15.0387 1.47149 14.9164 1.10936 14.6535 0.846478C14.3905 0.58357 14.0284 0.461344 13.66 0.510767Z" fill="#0FB8D3"/>
</svg>
