<svg width="32" height="32" viewBox="0 0 32 32" fill="none" xmlns="http://www.w3.org/2000/svg">
<rect width="32" height="32" rx="8" fill="#0FB8D3" fill-opacity="0.1"/>
<g clip-path="url(#clip0_219_5508)">
<path d="M9.07134 20C9.62277 20.9571 10.8457 21.2859 11.8027 20.7344C11.8034 20.7341 11.804 20.7337 11.8047 20.7333L12.1013 20.562C12.6613 21.0411 13.305 21.4127 14 21.658V22C14 23.1046 14.8954 24 16 24C17.1046 24 18 23.1046 18 22V21.658C18.6951 21.4123 19.3388 21.0403 19.8986 20.5607L20.1966 20.7327C21.1539 21.2849 22.3777 20.9566 22.93 19.9993C23.4823 19.042 23.154 17.8182 22.1966 17.266L21.9006 17.0953C22.0339 16.3703 22.0339 15.627 21.9006 14.902L22.1966 14.7313C23.1539 14.179 23.4823 12.9553 22.93 11.998C22.3777 11.0407 21.154 10.7123 20.1966 11.2646L19.9 11.436C19.3394 10.9574 18.6953 10.5866 18 10.342V10C18 8.89544 17.1046 8 16 8C14.8954 8 14 8.89544 14 10V10.342C13.3049 10.5877 12.6612 10.9597 12.1013 11.4393L11.8033 11.2667C10.846 10.7144 9.62227 11.0427 9.06999 12C8.51771 12.9573 8.84602 14.1811 9.80334 14.7333L10.0993 14.904C9.96609 15.629 9.96609 16.3723 10.0993 17.0973L9.80334 17.268C8.84868 17.8217 8.52143 19.0431 9.07134 20ZM16 13.3333C17.4727 13.3333 18.6666 14.5273 18.6666 16C18.6666 17.4727 17.4727 18.6667 16 18.6667C14.5272 18.6667 13.3333 17.4727 13.3333 16C13.3333 14.5273 14.5272 13.3333 16 13.3333Z" fill="#0FB8D3"/>
</g>
<defs>
<clipPath id="clip0_219_5508">
<rect width="16" height="16" fill="white" transform="translate(8 8)"/>
</clipPath>
</defs>
</svg>
