<svg width="213" height="66" viewBox="0 0 213 66" fill="none" xmlns="http://www.w3.org/2000/svg">
<path fill-rule="evenodd" clip-rule="evenodd" d="M93.4462 12.9354H81.9107V15.168H92.8076V18.2508H81.9107V20.5368H93.6055V24.0985H77.3919V9.32034H93.4462V12.9354ZM158.316 56.0174C158.316 55.4586 157.863 55.005 157.304 55.005C156.745 55.005 156.292 55.4586 156.292 56.0174C156.292 56.5764 156.745 57.0295 157.304 57.0295C157.863 57.0295 158.316 56.5764 158.316 56.0174ZM162.211 54.3825H160.531V53.3927H165.105V54.3825H163.425V58.6422H162.21L162.211 54.3825ZM169.794 58.6422L168.781 57.1801H168.721H167.664V58.6422H166.449V53.3927H168.721C169.187 53.3927 169.59 53.4699 169.933 53.625C170.275 53.7798 170.539 53.9995 170.724 54.2854C170.909 54.5701 171.002 54.9077 171.002 55.2972C171.002 55.6874 170.908 56.0235 170.72 56.3057C170.533 56.5885 170.267 56.8048 169.921 56.9549L171.099 58.6422H169.794ZM169.771 55.2972C169.771 55.0024 169.677 54.7761 169.487 54.6189C169.297 54.4617 169.019 54.3831 168.654 54.3831H167.665V56.213H168.654C169.019 56.213 169.297 56.1328 169.487 55.9732C169.677 55.8128 169.771 55.5886 169.771 55.2983V55.2972ZM176.11 57.5168H173.673L173.208 58.6417H171.963L174.303 53.3923H175.502L177.85 58.6417H176.575L176.11 57.5168ZM175.728 56.5944L174.897 54.5847L174.064 56.5944H175.728ZM183.903 53.3923V58.6417H182.907L180.288 55.4545V58.6417H179.089V53.3923H180.094L182.704 56.5793V53.3923H183.903ZM187.565 58.7314C187.15 58.7314 186.747 58.675 186.36 58.5625C185.973 58.4502 185.663 58.304 185.427 58.1242L185.84 57.2089C186.064 57.3741 186.333 57.5067 186.643 57.6065C186.952 57.7063 187.263 57.7563 187.572 57.7563C187.917 57.7563 188.172 57.7047 188.337 57.6025C188.502 57.5001 188.585 57.3641 188.585 57.1942C188.585 57.0692 188.537 56.9655 188.438 56.8829C188.34 56.8006 188.216 56.7341 188.063 56.6838C187.91 56.6338 187.705 56.5788 187.445 56.5189C187.046 56.4242 186.718 56.3289 186.463 56.2337C186.208 56.1389 185.989 55.9867 185.807 55.7766C185.625 55.5664 185.533 55.2861 185.533 54.937C185.533 54.6316 185.614 54.3558 185.781 54.1083C185.946 53.8609 186.194 53.6644 186.525 53.5197C186.859 53.3746 187.265 53.3021 187.745 53.3021C188.08 53.3021 188.408 53.3418 188.727 53.422C189.047 53.5017 189.328 53.6171 189.566 53.7667L189.193 54.6895C188.707 54.4143 188.223 54.2772 187.737 54.2772C187.398 54.2772 187.147 54.3322 186.983 54.4421C186.822 54.5519 186.74 54.697 186.74 54.8769C186.74 55.0569 186.834 55.1909 187.022 55.2782C187.209 55.3653 187.495 55.452 187.879 55.5367C188.28 55.6315 188.608 55.7268 188.861 55.8215C189.116 55.9163 189.335 56.0664 189.519 56.2715C189.701 56.4766 189.791 56.7543 189.791 57.1036C189.791 57.404 189.708 57.6771 189.541 57.9249C189.373 58.1724 189.123 58.369 188.788 58.5138C188.452 58.6588 188.046 58.7314 187.565 58.7314ZM192.531 54.3669V55.7543H194.961V56.7291H192.531V58.6411H191.317V53.3918H195.282V54.3664H192.53L192.531 54.3669ZM200.863 57.6666V58.6411H196.799V53.3918H200.766V54.3664H198.007V55.506H200.443V56.4509H198.007V57.666L200.863 57.6666ZM205.868 58.6411L204.856 57.1791H204.795H203.738V58.6411H202.522V53.3918H204.795C205.26 53.3918 205.663 53.4689 206.007 53.624C206.348 53.7788 206.612 53.9985 206.798 54.2843C206.984 54.5691 207.076 54.9066 207.076 55.2962C207.076 55.6863 206.982 56.0225 206.794 56.3048C206.607 56.5875 206.34 56.8037 205.994 56.9538L207.173 58.6411H205.868ZM205.845 55.2962C205.845 55.0014 205.75 54.7752 205.561 54.6179C205.37 54.4606 205.092 54.382 204.728 54.382H203.738V56.212H204.728C205.094 56.212 205.371 56.1318 205.561 55.9721C205.75 55.8118 205.845 55.5876 205.845 55.2972V55.2962ZM210.451 58.7309C210.036 58.7309 209.635 58.6745 209.248 58.562C208.86 58.4497 208.549 58.3034 208.315 58.1237L208.726 57.2084C208.952 57.3736 209.219 57.5062 209.529 57.606C209.838 57.7058 210.149 57.7557 210.46 57.7557C210.805 57.7557 211.058 57.7042 211.223 57.602C211.388 57.4996 211.471 57.3636 211.471 57.1938C211.471 57.0687 211.423 56.9649 211.326 56.8823C211.228 56.8001 211.102 56.7336 210.951 56.6833C210.798 56.6333 210.591 56.5785 210.331 56.5184C209.932 56.4237 209.604 56.3284 209.349 56.2331C209.094 56.1384 208.875 55.9862 208.693 55.776C208.511 55.5659 208.419 55.2856 208.419 54.9365C208.419 54.631 208.502 54.3553 208.667 54.1078C208.832 53.8604 209.08 53.6639 209.413 53.5192C209.745 53.3741 210.151 53.3016 210.631 53.3016C210.966 53.3016 211.294 53.3413 211.614 53.4215C211.933 53.5011 212.214 53.6165 212.454 53.7661L212.079 54.689C211.593 54.4138 211.109 54.2767 210.624 54.2767C210.284 54.2767 210.033 54.3317 209.87 54.4415C209.708 54.5514 209.627 54.6965 209.627 54.8764C209.627 55.0564 209.72 55.1905 209.908 55.2776C210.095 55.3648 210.382 55.4515 210.767 55.5362C211.166 55.631 211.494 55.7262 211.749 55.821C212.004 55.9157 212.223 56.0658 212.405 56.271C212.587 56.4761 212.679 56.7537 212.679 57.1031C212.679 57.4035 212.596 57.6766 212.428 57.9246C212.261 58.1719 212.009 58.3685 211.674 58.5132C211.339 58.6583 210.932 58.7309 210.451 58.7309ZM124.991 53.3918V58.6411H123.777V56.4888H121.392V58.6411H120.177V53.3918H121.392V55.4616H123.777V53.3918H124.991ZM129.47 58.7309C128.925 58.7309 128.434 58.6135 127.996 58.3781C127.559 58.1438 127.216 57.8196 126.969 57.4069C126.722 56.9946 126.597 56.5311 126.597 56.0155C126.597 55.5005 126.721 55.0373 126.969 54.6244C127.216 54.2123 127.559 53.8881 127.996 53.6533C128.434 53.4185 128.925 53.3005 129.47 53.3005C130.014 53.3005 130.505 53.418 130.94 53.6533C131.375 53.8876 131.717 54.2118 131.967 54.6244C132.217 55.0368 132.342 55.5005 132.342 56.0155C132.342 56.5311 132.217 56.9941 131.967 57.4069C131.717 57.8193 131.375 58.1433 130.94 58.3781C130.505 58.613 130.014 58.7309 129.47 58.7309ZM129.47 57.6962C129.78 57.6962 130.06 57.6247 130.31 57.4821C130.559 57.34 130.756 57.1409 130.898 56.8858C131.04 56.6312 131.112 56.3411 131.112 56.016C131.112 55.6914 131.04 55.401 130.898 55.1466C130.756 54.8915 130.559 54.6925 130.31 54.5503C130.06 54.4077 129.78 54.3362 129.47 54.3362C129.16 54.3362 128.88 54.4077 128.63 54.5503C128.381 54.6925 128.184 54.8915 128.041 55.1466C127.899 55.401 127.828 55.6914 127.828 56.016C127.828 56.3411 127.899 56.6312 128.041 56.8858C128.184 57.1409 128.381 57.34 128.63 57.4821C128.88 57.6247 129.16 57.6962 129.47 57.6962ZM134.961 54.3815H133.281V53.3918H137.855V54.3815H136.175V58.6411H134.96L134.961 54.3815ZM143.264 57.666V58.6406H139.2V53.3913H143.167V54.3659H140.407V55.5055H142.844V56.4504H140.407V57.6655L143.264 57.666ZM144.924 53.3918H146.139V57.6513H148.77V58.6411H144.924V53.3918ZM151.84 58.7309C151.425 58.7309 151.023 58.6745 150.636 58.562C150.249 58.4497 149.938 58.3034 149.702 58.1237L150.115 57.2084C150.339 57.3736 150.608 57.5062 150.917 57.606C151.227 57.7058 151.537 57.7557 151.847 57.7557C152.192 57.7557 152.447 57.7042 152.612 57.602C152.777 57.4996 152.86 57.3636 152.86 57.1938C152.86 57.0687 152.811 56.9649 152.713 56.8823C152.616 56.8001 152.491 56.7336 152.339 56.6833C152.186 56.6333 151.98 56.5785 151.72 56.5184C151.32 56.4237 150.992 56.3284 150.738 56.2331C150.483 56.1384 150.264 55.9862 150.081 55.776C149.899 55.5659 149.808 55.2856 149.808 54.9365C149.808 54.631 149.89 54.3553 150.055 54.1078C150.22 53.8604 150.468 53.6639 150.801 53.5192C151.134 53.3741 151.54 53.3016 152.02 53.3016C152.355 53.3016 152.682 53.3413 153.002 53.4215C153.322 53.5011 153.602 53.6165 153.842 53.7661L153.467 54.689C152.982 54.4138 152.497 54.2767 152.012 54.2767C151.672 54.2767 151.421 54.3317 151.259 54.4415C151.096 54.5514 151.015 54.6965 151.015 54.8764C151.015 55.0564 151.108 55.1905 151.297 55.2776C151.484 55.3648 151.77 55.4515 152.155 55.5362C152.554 55.631 152.882 55.7262 153.137 55.821C153.392 55.9157 153.611 56.0658 153.793 56.271C153.976 56.4761 154.067 56.7537 154.067 57.1031C154.067 57.4035 153.984 57.6766 153.816 57.9246C153.648 58.1719 153.398 58.3685 153.062 58.5132C152.727 58.6583 152.32 58.7309 151.84 58.7309ZM78.607 54.3664V55.7538H81.0367V56.7286H78.607V58.6406H77.3919V53.3913H81.3588V54.3659L78.607 54.3664ZM82.8752 53.3918H84.0903V57.6513H86.7222V58.6411H82.8752V53.3918ZM88.0964 53.3918H89.3115V58.6411H88.0964V53.3918ZM94.795 55.9338H95.9051V58.0636C95.6199 58.2788 95.2897 58.4437 94.9154 58.5591C94.5404 58.6739 94.1629 58.7314 93.7834 58.7314C93.2385 58.7314 92.7483 58.6155 92.3132 58.3826C91.8783 58.1504 91.5371 57.8278 91.2897 57.4149C91.0427 57.0028 90.9183 56.5365 90.9183 56.016C90.9183 55.4958 91.0422 55.0302 91.2897 54.6175C91.5371 54.2052 91.8809 53.8826 92.3208 53.6499C92.7607 53.4175 93.2557 53.301 93.8056 53.301C94.2657 53.301 94.683 53.3781 95.0584 53.5334C95.4329 53.688 95.7478 53.9129 96.0035 54.2076L95.2232 54.9278C94.8487 54.5328 94.3962 54.3352 93.866 54.3352C93.5309 54.3352 93.2335 54.4058 92.9735 54.5453C92.7139 54.6855 92.5108 54.883 92.3661 55.1381C92.221 55.3925 92.1485 55.6853 92.1485 56.015C92.1485 56.34 92.221 56.6304 92.3661 56.8848C92.5108 57.1399 92.7125 57.3389 92.97 57.481C93.227 57.6237 93.5208 57.6952 93.8509 57.6952C94.2011 57.6952 94.5163 57.6206 94.7958 57.4705V55.9327L94.795 55.9338ZM102.535 53.3918V58.6411H101.321V56.4888H98.9361V58.6411H97.721V53.3918H98.9361V55.4616H101.321V53.3918H102.535ZM105.559 54.3815H103.88V53.3918H108.454V54.3815H106.774V58.6411H105.559L105.559 54.3815ZM111.485 58.7309C111.07 58.7309 110.669 58.6745 110.282 58.562C109.894 58.4497 109.583 58.3034 109.348 58.1237L109.76 57.2084C109.985 57.3736 110.253 57.5062 110.563 57.606C110.873 57.7058 111.183 57.7557 111.493 57.7557C111.838 57.7557 112.092 57.7042 112.258 57.602C112.423 57.4996 112.505 57.3636 112.505 57.1938C112.505 57.0687 112.456 56.9649 112.359 56.8823C112.261 56.8001 112.136 56.7336 111.984 56.6833C111.831 56.6333 111.625 56.5785 111.365 56.5184C110.966 56.4237 110.638 56.3284 110.383 56.2331C110.128 56.1384 109.909 55.9862 109.727 55.776C109.544 55.5659 109.453 55.2856 109.453 54.9365C109.453 54.631 109.535 54.3553 109.701 54.1078C109.865 53.8604 110.114 53.6639 110.446 53.5192C110.779 53.3741 111.185 53.3016 111.665 53.3016C112 53.3016 112.328 53.3413 112.647 53.4215C112.967 53.5011 113.248 53.6165 113.487 53.7661L113.113 54.689C112.627 54.4138 112.142 54.2767 111.657 54.2767C111.318 54.2767 111.066 54.3317 110.904 54.4415C110.742 54.5514 110.661 54.6965 110.661 54.8764C110.661 55.0564 110.754 55.1905 110.942 55.2776C111.129 55.3648 111.416 55.4515 111.8 55.5362C112.2 55.631 112.527 55.7262 112.782 55.821C113.037 55.9157 113.256 56.0658 113.439 56.271C113.622 56.4761 113.712 56.7537 113.712 57.1031C113.712 57.4035 113.629 57.6766 113.461 57.9246C113.294 58.1719 113.043 58.3685 112.708 58.5132C112.373 58.6583 111.965 58.7309 111.485 58.7309ZM117.926 56.0164C117.926 55.4576 117.473 55.004 116.914 55.004C116.355 55.004 115.902 55.4576 115.902 56.0164C115.902 56.5753 116.355 57.0285 116.914 57.0285C117.473 57.0285 117.926 56.5753 117.926 56.0164ZM49.2171 26.1174C49.0578 26.1709 48.9514 26.2238 48.8447 26.2773C48.579 26.383 48.3664 26.4899 48.1007 26.6497L43.7947 28.7759L41.3494 27.5533L43.1033 26.4899C43.5821 26.2243 43.688 25.6397 43.4223 25.1609C43.3689 25.1075 43.3689 25.0545 43.3164 25.0545C42.8911 24.5233 42.0933 24.4699 41.6151 24.8952L41.5616 24.9487L39.648 26.7026L30.5583 22.0246C30.2392 21.8649 29.9202 21.8115 29.6013 21.7591L27.5813 21.6527L38.5851 31.3276L28.4849 36.3246C28.1659 36.4837 27.7939 36.5372 27.4754 36.4308L22.6906 34.1982L21.3088 33.8793L25.5084 38.7699C25.5613 38.8228 25.5613 38.8756 25.6142 38.8756L27.3156 44.8296L28.0066 43.3943L28.9637 39.0354C29.0171 38.7694 29.2292 38.5566 29.4949 38.4502L41.0304 34.5167L42.5721 47.7003L43.9011 46.4772C44.0604 46.2115 44.1666 45.8926 44.2201 45.5736L45.3893 36.7494L47.6754 36.643C48.3664 36.5896 48.8981 36.0049 48.8452 35.3675V35.3141C48.7917 34.7829 48.3135 34.4105 47.7817 34.4105C47.7283 34.4105 47.6754 34.4105 47.6219 34.4639L45.6549 34.9425L45.9211 32.8693L49.5884 31.5936C50.1731 31.4345 50.7583 31.2212 51.29 31.0091C54.4796 29.68 56.6589 27.4474 56.0742 26.1185C55.4896 24.7899 52.4591 24.7894 49.2165 26.1185L49.2171 26.1174ZM20.9369 34.2511C20.7776 34.0913 20.7776 33.8258 20.8834 33.6665C20.9896 33.5068 21.1489 33.4005 21.3088 33.4005H21.4151L22.85 33.6665C22.85 33.6665 22.9034 33.6665 22.9562 33.6665C26.0391 31.8588 29.335 30.424 32.684 29.3605L30.8768 27.2343C24.1255 29.6795 16.2584 34.4105 10.198 39.8856C4.7228 44.8296 3.18113 47.8596 0.0448608 54.2918C3.92499 48.3908 8.33732 43.4472 13.5999 39.6735C15.5669 38.2911 18.3307 36.4308 21.3077 34.6765L20.9353 34.2511H20.9369ZM22.1594 40.4178C18.5448 42.3314 15.1425 44.6169 11.9529 47.222C10.4112 48.4975 9.02929 49.8801 7.7003 51.3682C6.3713 52.8035 5.30791 54.4516 4.4577 56.2588C4.08526 57.1092 3.76675 58.0128 3.6599 58.9698C3.60648 59.4486 3.60648 59.874 3.6599 60.3522C3.71331 60.7776 3.87309 61.2024 4.03235 61.6277C4.4577 62.4781 5.09573 63.116 5.89303 63.5948C6.74375 64.073 7.59446 64.4449 8.55102 64.7111C10.518 65.1899 12.538 65.4554 14.5579 65.5618C16.5779 65.6153 18.6512 65.6153 20.6712 65.5084C18.6512 65.7211 16.5779 65.8808 14.5579 65.9337C12.4851 65.9866 10.4646 65.8273 8.44467 65.4549C7.43521 65.2423 6.42473 64.9237 5.46818 64.4449C3.9265 63.7011 2.8631 62.2658 2.54459 60.6177C2.43825 60.0865 2.43825 59.5015 2.43825 58.9703C2.49168 57.9069 2.75728 56.8435 3.18264 55.8335C3.98042 53.8669 5.04332 52.0592 6.37231 50.3584C7.64788 48.7108 9.08373 47.1686 10.572 45.7338C13.4956 42.9695 16.7382 40.4712 20.194 38.3978L22.1605 40.4178H22.1594ZM24.073 44.1921C21.4679 45.5207 19.0231 47.1151 16.6837 48.8701C15.5145 49.7203 14.3977 50.6773 13.3348 51.6873C12.2714 52.6973 11.3678 53.814 10.6234 55.0368C10.2509 55.6214 9.98534 56.3123 9.82608 57.0038C9.66631 57.6417 9.61289 58.3322 9.71974 58.9703C9.82609 59.2893 9.93291 59.6088 10.0922 59.8745L10.3578 60.2993L10.6768 60.7246C11.1022 61.2558 11.6868 61.6817 12.2714 62.0536C12.9094 62.4256 13.6004 62.6382 14.2913 62.7975L14.8225 62.9039L15.3542 63.0101C15.7262 63.063 16.0981 63.116 16.4705 63.1694C17.9588 63.3287 19.4476 63.3822 20.9893 63.3287C19.5005 63.4884 17.9588 63.5948 16.4176 63.5418C16.0452 63.5418 15.6203 63.5418 15.3013 63.4884L14.7167 63.4351L14.1321 63.3293C13.3343 63.2229 12.5899 62.9567 11.8989 62.6382C11.1551 62.3193 10.517 61.8405 9.93241 61.3093L9.50705 60.8305L9.18804 60.2993C8.97487 59.9269 8.81559 59.5548 8.65684 59.1829C8.39076 58.3852 8.39076 57.535 8.55052 56.6847C8.70977 55.8869 8.97587 55.0897 9.3483 54.3457C10.0388 52.9104 10.9429 51.6344 12.0058 50.4117C13.0158 49.2425 14.1326 48.1256 15.3018 47.1157C17.6936 45.0429 20.2988 43.1821 22.9567 41.5342L24.073 44.1921ZM45.0709 7.24696C57.9354 10.3298 65.8558 23.1939 62.7731 36.0584C59.6897 48.923 46.8257 56.8435 33.961 53.7606C29.4425 52.6973 25.3496 50.3049 22.16 46.956C22.0541 47.0094 21.9472 47.0622 21.841 47.1151C29.9747 58.4916 45.8157 61.1495 57.1915 53.0163C68.5679 44.8831 71.2253 29.0415 63.0926 17.6656C58.893 11.818 52.301 7.99083 45.0709 7.24696ZM39.011 8.41619C26.5184 8.41619 16.3652 18.5693 16.3652 31.062C16.3652 31.7529 16.3652 32.3905 16.4715 33.0289C17.535 32.3381 18.5978 31.6465 19.7141 30.9557C22.3188 18.7291 34.386 10.9149 46.6119 13.5729C51.7688 14.6892 56.3937 17.5594 59.6357 21.7061C55.9684 13.5729 47.8886 8.41619 39.011 8.41619ZM40.6591 60.3522C31.9407 60.3522 23.7546 56.3123 18.4391 49.4013C18.1729 49.6144 17.8545 49.8267 17.5354 50.0392C16.4186 50.8899 15.3562 51.7937 14.3458 52.7508C13.8141 53.282 13.3887 53.7606 12.9633 54.2923C25.2961 66.9437 45.4966 67.2103 58.148 54.8769C59.5304 53.548 60.7531 52.1127 61.8161 50.5715C56.553 56.7905 48.7928 60.3522 40.6591 60.3522ZM9.13614 38.7699C10.3054 37.7065 11.528 36.643 12.857 35.633C12.7512 34.5701 12.6977 33.4539 12.6977 32.3376C12.6977 16.8679 25.2429 4.3758 40.7123 4.3758C50.4402 4.3758 59.4775 9.47909 64.5803 17.7715C56.7132 1.98392 37.5227 -4.50178 21.6817 3.3129C7.27545 10.4361 0.417805 27.0745 5.57452 42.2785C6.58449 41.1618 7.75372 40.0459 9.13614 38.7699ZM208.162 36.4308C208.216 35.8463 208.002 35.3141 207.577 34.9954C207.206 34.7299 206.302 34.6236 204.92 34.6236H202.421C200.932 34.6236 200.03 34.7829 199.605 35.1548C199.18 35.5272 198.966 36.2711 198.966 37.4937V39.5137C198.966 40.5771 199.18 41.3209 199.657 41.693C200.136 42.0654 201.04 42.2774 202.421 42.2774L204.92 42.278C205.771 42.3309 206.673 42.2245 207.471 41.9055C207.95 41.6924 208.216 41.2147 208.162 40.683L208.108 40.3106V40.2571H203.112V37.3335H212.679V42.1712C212.679 43.5536 212.202 44.5102 211.192 45.0948C210.182 45.6793 208.48 45.9984 206.088 45.9984H201.304C200.188 46.0519 199.126 45.945 198.062 45.7327C197.423 45.5731 196.787 45.3074 196.254 44.8821C195.669 44.4572 195.244 43.8191 195.032 43.1812C194.767 42.3304 194.607 41.4797 194.659 40.5761V36.589C194.659 34.5163 195.138 33.0281 196.094 32.1769C197.052 31.3265 198.805 30.9012 201.304 30.9012H206.088C206.886 30.9012 207.577 30.9012 208.108 30.9546C208.585 30.9546 209.064 31.061 209.49 31.1145C210.128 31.2201 210.713 31.4334 211.244 31.8582C211.669 32.2307 212.042 32.7618 212.202 33.2936C212.414 34.0375 212.519 34.7818 212.519 35.5261V36.0046V36.3235L208.162 36.4308ZM191.204 45.8396H184.878L176.425 35.1548V45.8396H172.12V31.1148H178.499L186.898 41.9061V31.1148H191.204V45.8396ZM168.24 45.8396H163.934V31.1148H168.24V45.8396ZM147.348 36.5901H149.156L154.79 31.1153H160.532L152.93 38.3978L161.542 45.8396H155.535L149.156 40.3114H147.348V45.8396H143.043V31.1148H147.348V36.5901ZM127.521 45.9995C126.298 46.0527 125.075 45.946 123.906 45.7862C123.215 45.6803 122.63 45.4143 122.045 44.989C121.513 44.5636 121.088 43.979 120.875 43.3409C120.61 42.4907 120.503 41.5336 120.503 40.63V36.643C120.45 35.633 120.609 34.676 120.875 33.7194C121.088 33.0286 121.513 32.4439 122.045 32.0186C122.63 31.5931 123.268 31.3276 123.959 31.2207C125.128 31.0081 126.35 30.9551 127.52 30.9551H132.57C133.793 30.9017 134.962 31.0086 136.185 31.1683C136.876 31.2741 137.514 31.5403 138.098 31.9657C138.63 32.391 139.055 32.9756 139.268 33.667C139.534 34.5706 139.64 35.4742 139.64 36.4313V40.5247C139.64 41.4283 139.534 42.3854 139.268 43.2895C139.055 43.98 138.683 44.5645 138.098 44.9903C137.567 45.4159 136.876 45.6814 136.238 45.7883C135.068 45.9474 133.846 46.0538 132.623 46.0008H127.52L127.521 45.9995ZM128.69 42.3314H131.401C132.89 42.3314 133.899 42.1188 134.431 41.7467C134.962 41.3749 135.175 40.6306 135.175 39.5142V37.4413C135.175 36.3778 134.91 35.6341 134.431 35.2087C133.952 34.7834 132.942 34.5706 131.401 34.6241H128.637C127.095 34.6241 126.085 34.8368 125.554 35.2087C125.022 35.5806 124.809 36.3778 124.809 37.4947V39.5147C124.809 40.5781 125.075 41.3219 125.554 41.6938C126.138 42.1193 127.148 42.3314 128.69 42.3314ZM105.3 45.9995C104.077 46.0527 102.855 45.946 101.685 45.7862C100.994 45.6803 100.41 45.4143 99.8241 44.989C99.2929 44.5636 98.867 43.979 98.6548 43.3409C98.3893 42.4907 98.2824 41.5336 98.2824 40.63V36.643C98.2289 35.633 98.3887 34.676 98.6548 33.7194C98.8675 33.0286 99.2929 32.4439 99.8241 32.0186C100.409 31.646 101.047 31.3276 101.685 31.2207C102.855 31.0081 104.077 30.9551 105.3 30.9551H110.35C111.573 30.9017 112.742 31.0086 113.965 31.1683C114.656 31.2741 115.294 31.5403 115.878 31.9657C116.41 32.391 116.835 32.9756 117.047 33.667C117.314 34.5706 117.42 35.4742 117.42 36.4313V40.5247C117.42 41.4283 117.314 42.3854 117.047 43.2895C116.835 43.98 116.463 44.5645 115.878 44.9903C115.347 45.4159 114.656 45.6814 113.965 45.7883C112.795 45.9474 111.573 46.0538 110.35 46.0008H105.3V45.9995ZM106.47 42.3314H109.181C110.669 42.3314 111.679 42.1188 112.211 41.7467C112.742 41.3749 112.955 40.6306 112.955 39.5142V37.4413C112.955 36.3778 112.689 35.6341 112.211 35.2087C111.732 34.7834 110.722 34.5706 109.181 34.6241H106.416C104.875 34.6241 103.865 34.8368 103.386 35.2087C102.907 35.6335 102.642 36.3778 102.642 37.4947V39.5147C102.642 40.5781 102.907 41.3219 103.386 41.6938C103.865 42.0664 104.981 42.3314 106.47 42.3314ZM90.7343 45.8402H77.3914V31.1153H90.0963C91.6909 31.1153 92.8605 31.4345 93.605 32.1248C94.3493 32.8158 94.7741 33.8263 94.7741 35.2082C94.8805 36.5901 94.0303 37.8661 92.7014 38.2911C93.4457 38.3444 94.1897 38.7699 94.6684 39.3544C95.1467 40.0988 95.3593 40.949 95.3064 41.7997C95.3064 43.1821 94.934 44.1921 94.2429 44.8302C93.5521 45.4683 92.3293 45.8402 90.7343 45.8402ZM89.2461 36.8566C89.5651 36.8566 89.8307 36.7504 90.0963 36.5377C90.309 36.2716 90.4152 35.953 90.3619 35.6341C90.3619 35.3146 90.2561 34.9954 90.0428 34.7834C89.8302 34.5706 89.5645 34.411 89.2456 34.411H81.6965V36.8566H89.2461ZM89.618 42.4912C89.9375 42.4912 90.2566 42.3848 90.4687 42.1188C90.6814 41.8531 90.7878 41.4807 90.7878 41.1088C90.7878 40.7897 90.6814 40.4183 90.4687 40.1523C90.2556 39.939 89.9375 39.7797 89.618 39.7797L81.6446 39.7794V42.4373L89.618 42.4912ZM151.92 24.0451H147.455V18.7291L139.322 9.32034H144.85L149.688 15.168L154.738 9.32034H160.054L151.92 18.7291L151.92 24.0451ZM119.121 19.1544H123.534V19.4201C123.48 19.8455 123.64 20.2708 123.959 20.5368C124.49 20.8025 125.075 20.856 125.66 20.8025H131.295C131.72 20.856 132.145 20.7491 132.464 20.5368C132.73 20.3237 132.837 19.9522 132.837 19.5798C132.89 19.2074 132.73 18.8355 132.411 18.6227C132.199 18.5165 131.986 18.4096 131.72 18.3572C131.348 18.3037 130.976 18.2508 130.658 18.2508L123.587 18.0915C122.843 18.0915 122.099 18.0382 121.408 17.8255C120.877 17.7196 120.398 17.4531 120.026 17.0816C119.387 16.4436 119.122 15.3272 119.122 13.7322C119.122 13.0412 119.175 12.3502 119.387 11.6593C119.547 11.1276 119.813 10.7022 120.185 10.3303C120.664 9.90495 121.195 9.58594 121.833 9.42666C122.95 9.21349 124.066 9.10765 125.182 9.16108L132.039 9.16058C133.741 9.16058 134.963 9.47959 135.707 10.0642C136.452 10.7028 136.824 11.7122 136.824 13.0946V13.4137L136.771 13.9448H132.465V13.8919C132.518 13.4666 132.358 13.0941 132.092 12.7751C131.773 12.5095 131.401 12.4027 130.976 12.4027H125.819C125.235 12.3492 124.65 12.4561 124.118 12.6683C123.852 12.8814 123.693 13.2 123.693 13.5724C123.64 13.9443 123.799 14.2629 124.066 14.476C124.49 14.6887 124.969 14.8485 125.447 14.8485L132.837 14.9543C133.581 14.9543 134.272 15.0606 134.963 15.2199C135.495 15.3797 136.026 15.6453 136.398 16.0177C137.089 16.7087 137.462 17.9313 137.462 19.6327C137.515 20.4301 137.355 21.2273 137.089 21.9713C136.823 22.5558 136.345 23.088 135.814 23.4066C135.335 23.6721 134.804 23.8849 134.219 23.9376C133.262 24.044 132.252 24.0975 131.295 24.0975H125.289C122.843 24.0975 121.195 23.8314 120.345 23.2997C119.494 22.7685 119.122 21.7051 119.122 20.2168V19.7915V19.1534L119.121 19.1544ZM100.569 24.0451H95.6783L103.705 9.37325H109.447L117.314 24.0451H112.37L110.935 21.5992H102.005L100.569 24.0451ZM103.705 18.0382H109.34L106.47 12.8285L103.705 18.0382Z" fill="#EFEFEF"/>
</svg>
