<svg width="12" height="12" viewBox="0 0 12 12" fill="none" xmlns="http://www.w3.org/2000/svg">
<path d="M10.6915 0.392578H9.57003V1.51407C9.57003 1.73837 9.38312 1.88791 9.1962 1.88791C9.00928 1.88791 8.82237 1.73837 8.82237 1.51407V0.392578H2.84106V1.51407C2.84106 1.73837 2.65414 1.88791 2.46723 1.88791C2.28031 1.88791 2.0934 1.73837 2.0934 1.51407V0.392578H0.971902C0.411154 0.392578 -6.10352e-05 0.878559 -6.10352e-05 1.51407V2.85987H11.9626V1.51407C11.9626 0.878559 11.2897 0.392578 10.6915 0.392578ZM-6.10352e-05 3.64491V10.486C-6.10352e-05 11.1589 0.411154 11.6075 1.00928 11.6075H10.7289C11.327 11.6075 11.9999 11.1216 11.9999 10.486V3.64491H-6.10352e-05ZM3.32704 9.92529H2.42985C2.28031 9.92529 2.13078 9.81314 2.13078 9.62622V8.69164C2.13078 8.54211 2.24293 8.39258 2.42985 8.39258H3.36442C3.51396 8.39258 3.66349 8.50473 3.66349 8.69164V9.62622C3.62611 9.81314 3.51396 9.92529 3.32704 9.92529ZM3.32704 6.5608H2.42985C2.28031 6.5608 2.13078 6.44865 2.13078 6.26174V5.32716C2.13078 5.17763 2.24293 5.02809 2.42985 5.02809H3.36442C3.51396 5.02809 3.66349 5.14024 3.66349 5.32716V6.26174C3.62611 6.44865 3.51396 6.5608 3.32704 6.5608ZM6.3177 9.92529H5.38312C5.23358 9.92529 5.08405 9.81314 5.08405 9.62622V8.69164C5.08405 8.54211 5.1962 8.39258 5.38312 8.39258H6.3177C6.46723 8.39258 6.61676 8.50473 6.61676 8.69164V9.62622C6.61676 9.81314 6.50461 9.92529 6.3177 9.92529ZM6.3177 6.5608H5.38312C5.23358 6.5608 5.08405 6.44865 5.08405 6.26174V5.32716C5.08405 5.17763 5.1962 5.02809 5.38312 5.02809H6.3177C6.46723 5.02809 6.61676 5.14024 6.61676 5.32716V6.26174C6.61676 6.44865 6.50461 6.5608 6.3177 6.5608ZM9.30835 9.92529H8.37377C8.22424 9.92529 8.07471 9.81314 8.07471 9.62622V8.69164C8.07471 8.54211 8.18685 8.39258 8.37377 8.39258H9.30835C9.45788 8.39258 9.60742 8.50473 9.60742 8.69164V9.62622C9.60742 9.81314 9.49527 9.92529 9.30835 9.92529ZM9.30835 6.5608H8.37377C8.22424 6.5608 8.07471 6.44865 8.07471 6.26174V5.32716C8.07471 5.17763 8.18685 5.02809 8.37377 5.02809H9.30835C9.45788 5.02809 9.60742 5.14024 9.60742 5.32716V6.26174C9.60742 6.44865 9.49527 6.5608 9.30835 6.5608Z" fill="#303030"/>
</svg>
