<svg width="25" height="25" viewBox="0 0 25 25" fill="none" xmlns="http://www.w3.org/2000/svg">
<path d="M12.125 5.02881C9.95255 5.02881 8.18512 6.79624 8.18512 8.9687C8.18512 11.1412 9.95255 12.9086 12.125 12.9086C14.2975 12.9086 16.0649 11.1412 16.0649 8.9687C16.0649 6.79624 14.2975 5.02881 12.125 5.02881Z" fill="#969696"/>
<path d="M17.027 15.4824C15.9483 14.3872 14.5184 13.7841 13.0005 13.7841H11.2495C9.73166 13.7841 8.30169 14.3872 7.22303 15.4824C6.14966 16.5723 5.55853 18.0109 5.55853 19.5334C5.55853 19.7751 5.75453 19.9711 5.9963 19.9711H18.2537C18.4955 19.9711 18.6915 19.7751 18.6915 19.5334C18.6915 18.0109 18.1004 16.5723 17.027 15.4824Z" fill="#969696"/>
</svg>
