<svg width="16" height="16" viewBox="0 0 16 16" fill="none" xmlns="http://www.w3.org/2000/svg">
<g clip-path="url(#clip0_202_5399)">
<path d="M14 3.99967H3.33333C2.76067 3.99967 2.21867 3.75167 1.84333 3.33367C2.21 2.92434 2.74267 2.66634 3.33333 2.66634H15.3333C16.2053 2.66234 16.2047 1.33634 15.3333 1.33301H3.33333C1.49267 1.33301 0 2.82567 0 4.66634V11.333C0 13.1737 1.49267 14.6663 3.33333 14.6663H14C15.1047 14.6663 16 13.771 16 12.6663V5.99967C16 4.89501 15.1047 3.99967 14 3.99967ZM13.3333 9.99968C12.4613 9.99568 12.4613 8.67034 13.3333 8.66634C14.2053 8.67034 14.2053 9.99568 13.3333 9.99968Z" fill="#0FB8D3"/>
</g>
<defs>
<clipPath id="clip0_202_5399">
<rect width="16" height="16" fill="white"/>
</clipPath>
</defs>
</svg>
