<svg width="32" height="32" viewBox="0 0 32 32" fill="none" xmlns="http://www.w3.org/2000/svg">
<rect width="32" height="32" rx="8" fill="#0FB8D3" fill-opacity="0.1"/>
<g clip-path="url(#clip0_202_5380)">
<path d="M22 11.9997H11.3333C10.7607 11.9997 10.2187 11.7517 9.84333 11.3337C10.21 10.9243 10.7427 10.6663 11.3333 10.6663H23.3333C24.2053 10.6623 24.2047 9.33634 23.3333 9.33301H11.3333C9.49267 9.33301 8 10.8257 8 12.6663V19.333C8 21.1737 9.49267 22.6663 11.3333 22.6663H22C23.1047 22.6663 24 21.771 24 20.6663V13.9997C24 12.895 23.1047 11.9997 22 11.9997ZM21.3333 17.9997C20.4613 17.9957 20.4613 16.6703 21.3333 16.6663C22.2053 16.6703 22.2053 17.9957 21.3333 17.9997Z" fill="#0FB8D3"/>
</g>
<defs>
<clipPath id="clip0_202_5380">
<rect width="16" height="16" fill="white" transform="translate(8 8)"/>
</clipPath>
</defs>
</svg>
